<mxfile host="app.diagrams.net" modified="2021-09-11T17:27:54.721Z" agent="5.0 (Windows NT 10.0; Win64; x64) AppleWebKit/537.36 (KHTML, like Gecko) Chrome/93.0.4577.63 Safari/537.36" etag="mAL_FhsBBG8bfPM1_CMz" version="15.1.0" type="github">
  <diagram id="G19QM-FE5feUTglLi3jC" name="Page-1">
    <mxGraphModel dx="1022" dy="436" grid="1" gridSize="10" guides="1" tooltips="1" connect="1" arrows="1" fold="1" page="1" pageScale="1" pageWidth="827" pageHeight="1169" math="0" shadow="0">
      <root>
        <mxCell id="0" />
        <mxCell id="1" parent="0" />
        <mxCell id="sk36xTN6No9JStmsrsv5-3" style="edgeStyle=orthogonalEdgeStyle;rounded=0;orthogonalLoop=1;jettySize=auto;html=1;exitX=0.5;exitY=1;exitDx=0;exitDy=0;entryX=0.5;entryY=0;entryDx=0;entryDy=0;" edge="1" parent="1" source="sk36xTN6No9JStmsrsv5-1" target="sk36xTN6No9JStmsrsv5-2">
          <mxGeometry relative="1" as="geometry" />
        </mxCell>
        <mxCell id="sk36xTN6No9JStmsrsv5-1" value="" style="ellipse;whiteSpace=wrap;html=1;" vertex="1" parent="1">
          <mxGeometry x="330" y="90" width="120" height="80" as="geometry" />
        </mxCell>
        <mxCell id="sk36xTN6No9JStmsrsv5-7" style="edgeStyle=orthogonalEdgeStyle;rounded=0;orthogonalLoop=1;jettySize=auto;html=1;exitX=0.5;exitY=1;exitDx=0;exitDy=0;entryX=0.5;entryY=0;entryDx=0;entryDy=0;" edge="1" parent="1" source="sk36xTN6No9JStmsrsv5-2" target="sk36xTN6No9JStmsrsv5-6">
          <mxGeometry relative="1" as="geometry" />
        </mxCell>
        <mxCell id="sk36xTN6No9JStmsrsv5-2" value="" style="rounded=0;whiteSpace=wrap;html=1;" vertex="1" parent="1">
          <mxGeometry x="330" y="220" width="120" height="60" as="geometry" />
        </mxCell>
        <mxCell id="sk36xTN6No9JStmsrsv5-4" value="Start" style="text;html=1;strokeColor=none;fillColor=none;align=center;verticalAlign=middle;whiteSpace=wrap;rounded=0;" vertex="1" parent="1">
          <mxGeometry x="370" y="120" width="40" height="20" as="geometry" />
        </mxCell>
        <mxCell id="sk36xTN6No9JStmsrsv5-5" value="Input&lt;br&gt;from RFID &amp;amp; Temp_sensor" style="text;html=1;strokeColor=none;fillColor=none;align=center;verticalAlign=middle;whiteSpace=wrap;rounded=0;" vertex="1" parent="1">
          <mxGeometry x="370" y="240" width="40" height="20" as="geometry" />
        </mxCell>
        <mxCell id="sk36xTN6No9JStmsrsv5-13" style="edgeStyle=orthogonalEdgeStyle;rounded=0;orthogonalLoop=1;jettySize=auto;html=1;exitX=0;exitY=0.5;exitDx=0;exitDy=0;entryX=0.5;entryY=0;entryDx=0;entryDy=0;" edge="1" parent="1" source="sk36xTN6No9JStmsrsv5-6" target="sk36xTN6No9JStmsrsv5-11">
          <mxGeometry relative="1" as="geometry" />
        </mxCell>
        <mxCell id="sk36xTN6No9JStmsrsv5-14" style="edgeStyle=orthogonalEdgeStyle;rounded=0;orthogonalLoop=1;jettySize=auto;html=1;exitX=1;exitY=0.5;exitDx=0;exitDy=0;entryX=0.561;entryY=0;entryDx=0;entryDy=0;entryPerimeter=0;" edge="1" parent="1" source="sk36xTN6No9JStmsrsv5-6" target="sk36xTN6No9JStmsrsv5-12">
          <mxGeometry relative="1" as="geometry" />
        </mxCell>
        <mxCell id="sk36xTN6No9JStmsrsv5-6" value="" style="rhombus;whiteSpace=wrap;html=1;" vertex="1" parent="1">
          <mxGeometry x="305" y="330" width="170" height="140" as="geometry" />
        </mxCell>
        <mxCell id="sk36xTN6No9JStmsrsv5-9" value="Comparing flags from RFID and Temp_sensor" style="text;html=1;strokeColor=none;fillColor=none;align=center;verticalAlign=middle;whiteSpace=wrap;rounded=0;" vertex="1" parent="1">
          <mxGeometry x="370" y="390" width="40" height="20" as="geometry" />
        </mxCell>
        <mxCell id="sk36xTN6No9JStmsrsv5-11" value="" style="rounded=0;whiteSpace=wrap;html=1;" vertex="1" parent="1">
          <mxGeometry x="150" y="450" width="120" height="60" as="geometry" />
        </mxCell>
        <mxCell id="sk36xTN6No9JStmsrsv5-12" value="" style="rounded=0;whiteSpace=wrap;html=1;" vertex="1" parent="1">
          <mxGeometry x="530" y="450" width="120" height="60" as="geometry" />
        </mxCell>
        <mxCell id="sk36xTN6No9JStmsrsv5-15" value="True" style="text;html=1;strokeColor=none;fillColor=none;align=center;verticalAlign=middle;whiteSpace=wrap;rounded=0;" vertex="1" parent="1">
          <mxGeometry x="230" y="360" width="40" height="20" as="geometry" />
        </mxCell>
        <mxCell id="sk36xTN6No9JStmsrsv5-16" value="False" style="text;html=1;strokeColor=none;fillColor=none;align=center;verticalAlign=middle;whiteSpace=wrap;rounded=0;" vertex="1" parent="1">
          <mxGeometry x="520" y="360" width="40" height="20" as="geometry" />
        </mxCell>
        <mxCell id="sk36xTN6No9JStmsrsv5-17" value="Door_Open()" style="text;html=1;strokeColor=none;fillColor=none;align=center;verticalAlign=middle;whiteSpace=wrap;rounded=0;" vertex="1" parent="1">
          <mxGeometry x="190" y="470" width="40" height="20" as="geometry" />
        </mxCell>
        <mxCell id="sk36xTN6No9JStmsrsv5-18" value="Door_Close()" style="text;html=1;strokeColor=none;fillColor=none;align=center;verticalAlign=middle;whiteSpace=wrap;rounded=0;" vertex="1" parent="1">
          <mxGeometry x="580" y="470" width="40" height="20" as="geometry" />
        </mxCell>
      </root>
    </mxGraphModel>
  </diagram>
</mxfile>
